# xmcd
#
# Track frame offsets:
#	150
#	19827
#	30121
#	60152
#	70401
#	97064
#
# Disc length: 2787 seconds
#
# Revision: 0
# Processed by: cddbd v1.5.1PL0 Copyright (c) Steve Scherf et al.
# Submitted via: audiograbber 1.83.01
#
DISCID=410ae106
DTITLE=carlos santana&bbuddt miles - live
DYEAR=1900
DGENRE=
TTITLE0=1marbles
TTITLE1=2lava
TTITLE2=3evil ways
TTITLE3=4faith interlude
TTITLE4=5them changes
TTITLE5=6free forum fun-kafide filth
EXTD=
EXTT0=
EXTT1=
EXTT2=
EXTT3=
EXTT4=
EXTT5=
PLAYORDER=
